<svg width="18" height="22" viewBox="0 0 18 22" fill="none" xmlns="http://www.w3.org/2000/svg">
<path fill-rule="evenodd" clip-rule="evenodd" d="M14.4473 11.4226C14.4207 8.70085 16.6405 7.39475 16.7396 7.33008C15.4919 5.48278 13.5481 5.22886 12.8555 5.20031C11.2013 5.03128 9.62827 6.18663 8.78786 6.18663C7.94978 6.18663 6.65468 5.22567 5.28314 5.2511C3.48041 5.27808 1.81838 6.31239 0.889035 7.94666C-0.983894 11.2357 0.409976 16.1107 2.23548 18.7777C3.12723 20.0838 4.19068 21.551 5.58731 21.4986C6.93179 21.4451 7.44059 20.617 9.06694 20.617C10.6929 20.617 11.1495 21.4986 12.5728 21.4705C14.02 21.4435 14.9369 20.139 15.8227 18.8285C16.8478 17.3128 17.268 15.8472 17.2935 15.7718C17.2613 15.7572 14.4716 14.6756 14.4434 11.4238L14.4473 11.4226H14.4473ZM11.774 3.43313C12.5148 2.52337 13.0154 1.26049 12.8786 0C11.8112 0.0440385 10.5169 0.720102 9.7506 1.62869C9.06265 2.43529 8.46173 3.72077 8.62246 4.95546C9.81448 5.04952 11.0316 4.34248 11.7728 3.4347L11.774 3.43313Z" fill="white"/>
</svg>
