<svg width="30" height="22" viewBox="0 0 30 22" fill="none" xmlns="http://www.w3.org/2000/svg">
<path d="M1.72072 0H28.2795C28.7529 0 29.1831 0.196588 29.4946 0.512267C29.8064 0.828441 30 1.26544 30 1.74503V20.2547C30 20.6165 29.8899 20.9534 29.7019 21.233C29.6675 21.3233 29.6138 21.4075 29.5403 21.4791C29.4912 21.5259 29.4373 21.5642 29.3801 21.5932C29.081 21.846 28.6968 22 28.2795 22H1.72072C1.24781 22 0.817145 21.8037 0.505131 21.4875C0.193849 21.1716 0 20.7353 0 20.2547V1.74503C0 1.26445 0.193361 0.827946 0.504887 0.512267C0.816413 0.196093 1.24684 0 1.72072 0ZM1.31984 19.5206L10.6275 10.0577L1.31984 2.36153V19.5206ZM11.6527 10.9052L2.05666 20.6613H27.8628L18.6923 10.9067L15.6691 13.519C15.432 13.7245 15.077 13.7361 14.826 13.5296L11.6527 10.9052ZM19.696 10.0396L28.6802 19.5961V2.27735L19.696 10.0396ZM2.16481 1.33848L15.2316 12.1431L27.7373 1.33848H2.16481Z" fill="#6D3D94"/>
</svg>
