<svg width="27" height="27" viewBox="0 0 27 27" fill="none" xmlns="http://www.w3.org/2000/svg">
<path d="M26.9672 13.5331C26.9672 6.05877 20.9306 0 13.4836 0C6.03663 0 0 6.05877 0 13.5331C0 19.88 4.35343 25.205 10.2263 26.6678V17.6685H7.44592V13.5331H10.2263V11.7512C10.2263 7.1446 12.3032 5.00962 16.8087 5.00962C17.6633 5.00962 19.1372 5.17819 19.7401 5.34622V9.09507C19.4217 9.06156 18.8691 9.04455 18.1825 9.04455C15.9716 9.04455 15.117 9.88525 15.117 12.0707V13.5331H19.5213L18.7647 17.6685H15.117V26.9672C21.7936 26.1579 26.9672 20.4522 26.9672 13.5331Z" fill="#6D3D94"/>
</svg>
