<svg width="37" height="37" viewBox="0 0 37 37" fill="none" xmlns="http://www.w3.org/2000/svg">
<circle cx="18.2282" cy="18.2282" r="18.2282" fill="black"/>
<path d="M29 18.4961C29 12.697 24.2991 7.99609 18.5 7.99609C12.7009 7.99609 8 12.697 8 18.4961C8 23.4206 11.3901 27.5521 15.9635 28.6871V21.7047H13.7983V18.4961H15.9635V17.1136C15.9635 13.5394 17.5808 11.883 21.0893 11.883C21.7548 11.883 22.9026 12.0137 23.3721 12.1441V15.0528C23.1241 15.0268 22.6938 15.0136 22.1591 15.0136C20.4374 15.0136 19.772 15.6658 19.772 17.3615V18.4961H23.2017L22.6125 21.7047H19.772V28.9194C24.9712 28.2914 29 23.8645 29 18.4961Z" fill="white"/>
</svg>
