<svg width="37" height="37" viewBox="0 0 37 37" fill="none" xmlns="http://www.w3.org/2000/svg">
<circle cx="18.2282" cy="18.2282" r="18.2282" fill="black"/>
<path d="M22.4691 12.8758C23.5394 12.8758 24.407 12.0082 24.407 10.9379C24.407 9.86762 23.5394 9 22.4691 9C21.3989 9 20.5312 9.86762 20.5312 10.9379C20.5312 12.0082 21.3989 12.8758 22.4691 12.8758Z" fill="white"/>
<path d="M24.492 14.1464H15.6211V13.5651C15.6211 12.4234 16.7628 12.4018 17.3441 12.4018C18.0112 12.4018 18.3134 12.4667 18.3134 12.4667V9.32221C17.8418 9.26346 17.367 9.2348 16.8919 9.23639C15.0398 9.23639 11.6155 9.75278 11.6155 13.6725V14.1709H10V17.0781H11.6155V23.2156H10.1082V26.1228H17.3859V23.2127H15.6197V17.0752H20.4626V23.2127H18.9574V26.1199H26V23.2127H24.492V14.1464Z" fill="white"/>
</svg>
