<svg width="37" height="37" viewBox="0 0 37 37" fill="none" xmlns="http://www.w3.org/2000/svg">
<circle cx="18.2282" cy="18.2282" r="18.2282" fill="black"/>
<path fill-rule="evenodd" clip-rule="evenodd" d="M17.9994 8.00363C11.9256 8.00363 7 12.8232 7 18.7679C7 23.5243 10.1514 27.5579 14.522 28.982C15.0721 29.0817 15.2743 28.7479 15.2743 28.4635C15.2743 28.2068 15.2634 27.3589 15.2589 26.4601C12.1985 27.1114 11.5533 25.1895 11.5533 25.1895C11.0531 23.9451 10.332 23.6141 10.332 23.6141C9.33409 22.9454 10.408 22.9601 10.408 22.9601C11.5123 23.0356 12.0937 24.0687 12.0937 24.0687C13.0754 25.7144 14.6677 25.238 15.295 24.9634C15.3941 24.2677 15.6783 23.7925 15.9933 23.5235C13.55 23.2521 10.9817 22.3288 10.9817 18.2037C10.9817 17.0288 11.412 16.0681 12.1148 15.3147C12.0003 15.043 11.6236 13.9488 12.2208 12.4663C12.2208 12.4663 13.1444 12.1767 15.2467 13.5697C16.1237 13.3317 17.0644 13.2117 17.9986 13.2077C18.9336 13.2117 19.8759 13.3313 20.7541 13.5697C22.8536 12.1775 23.7764 12.4663 23.7764 12.4663C24.3744 13.9492 23.9993 15.0442 23.8848 15.3148C24.59 16.0681 25.0167 17.0288 25.0167 18.2037C25.0167 22.3383 22.4427 23.2473 19.9941 23.514C20.3887 23.8477 20.7411 24.5029 20.7411 25.5066C20.7411 26.9461 20.7285 28.1062 20.7285 28.4603C20.7285 28.7467 20.9267 29.0817 21.4845 28.9768C25.8526 27.552 29 23.5179 29 18.7643C29 12.8203 24.0752 8 18.0002 8L17.9994 8.00363Z" fill="white"/>
</svg>
