<svg width="28" height="27" viewBox="0 0 28 27" fill="none" xmlns="http://www.w3.org/2000/svg">
<path fill-rule="evenodd" clip-rule="evenodd" d="M13.8681 0.00466547C6.21023 0.00466547 0 6.19369 0 13.8277C0 19.9356 3.97326 25.1154 9.48378 26.9441C10.1774 27.0721 10.4323 26.6435 10.4323 26.2782C10.4323 25.9486 10.4185 24.8598 10.4128 23.7056C6.55425 24.5419 5.74086 22.0739 5.74086 22.0739C5.11019 20.4759 4.20106 20.0509 4.20106 20.0509C2.94283 19.1922 4.29679 19.211 4.29679 19.211C5.68911 19.308 6.42215 20.6346 6.42215 20.6346C7.65993 22.748 9.66753 22.1362 10.4584 21.7836C10.5833 20.8902 10.9416 20.28 11.3388 19.9346C8.25827 19.5861 5.02008 18.4003 5.02008 13.1031C5.02008 11.5944 5.56269 10.3607 6.44876 9.39324C6.30444 9.04428 5.8294 7.63912 6.58238 5.73544C6.58238 5.73544 7.74691 5.3635 10.3975 7.15236C11.5032 6.84673 12.6892 6.69264 13.8671 6.68754C15.0459 6.69264 16.234 6.84621 17.3412 7.15236C19.9882 5.36454 21.1517 5.73544 21.1517 5.73544C21.9057 7.63964 21.4328 9.0458 21.2884 9.39329C22.1776 10.3607 22.7156 11.5944 22.7156 13.1031C22.7156 18.4126 19.4702 19.5799 16.383 19.9223C16.8805 20.3509 17.3249 21.1923 17.3249 22.4811C17.3249 24.3296 17.309 25.8195 17.309 26.2741C17.309 26.642 17.5588 27.0721 18.2621 26.9374C23.7695 25.1077 27.7377 19.9274 27.7377 13.823C27.7377 6.19006 21.5285 0 13.8691 0L13.8681 0.00462227L13.8681 0.00466547Z" fill="#6D3D94"/>
</svg>
