<svg width="68" height="59" viewBox="0 0 68 59" fill="none" xmlns="http://www.w3.org/2000/svg">
<rect width="68" height="59" fill="#242424"/>
<path fill-rule="evenodd" clip-rule="evenodd" d="M15.1924 13H52.6876C54.4445 13 55.88 14.4355 55.88 16.1924C55.88 17.9494 54.4445 19.3849 52.6876 19.3849H15.1924C13.4355 19.3849 12 17.9494 12 16.1924C12 14.4355 13.4355 13 15.1924 13ZM15.1924 40.8785H52.6876C54.4445 40.8785 55.88 42.314 55.88 44.071C55.88 45.8279 54.4445 47.2634 52.6876 47.2634H15.1924C13.4355 47.2634 12 45.8279 12 44.071C12 42.314 13.4355 40.8785 15.1924 40.8785ZM15.1924 26.9375H52.6876C54.4445 26.9375 55.88 28.373 55.88 30.1299C55.88 31.8868 54.4445 33.3224 52.6876 33.3224H15.1924C13.4355 33.3224 12 31.8868 12 30.1299C12 28.3766 13.4355 26.9375 15.1924 26.9375Z" fill="#6D3D94"/>
</svg>
