<svg width="32" height="32" viewBox="0 0 32 32" fill="none" xmlns="http://www.w3.org/2000/svg">
<path d="M15.9973 0C9.32074 0 7.36811 0.00688759 6.98856 0.0383737C5.61842 0.152265 4.76583 0.367994 3.83699 0.830447C3.12117 1.1859 2.55664 1.59792 1.99948 2.1755C0.984789 3.22881 0.369826 4.52466 0.147209 6.06502C0.038975 6.81281 0.00748889 6.96533 0.00109327 10.785C-0.00136659 12.0582 0.00109327 13.7339 0.00109327 15.9814C0.00109327 22.6526 0.00847284 24.6032 0.0404509 24.982C0.151144 26.3153 0.360232 27.1541 0.803006 28.0716C1.6492 29.828 3.26532 31.1464 5.16925 31.6384C5.82849 31.8081 6.55661 31.9016 7.49135 31.9459C7.88739 31.9631 11.924 31.9754 15.9631 31.9754C20.0022 31.9754 24.0413 31.9705 24.4275 31.9508C25.5098 31.8999 26.1383 31.8155 26.8332 31.6359C28.7494 31.1415 30.336 29.8427 31.1994 28.0618C31.6336 27.1664 31.8538 26.2956 31.9534 25.032C31.975 24.7565 31.9841 20.3639 31.9841 15.9773C31.9841 11.5899 31.9743 7.20541 31.9526 6.9299C31.8518 5.64586 31.6316 4.78245 31.1834 3.86984C30.8157 3.12279 30.4074 2.56489 29.8145 1.99445C28.7565 0.983942 27.4627 0.368978 25.9208 0.146607C25.1738 0.0386197 25.025 0.00664161 21.2023 0H15.9973Z" fill="black"/>
<path d="M15.9973 0C9.32074 0 7.36811 0.00688759 6.98856 0.0383737C5.61842 0.152265 4.76583 0.367994 3.83699 0.830447C3.12117 1.1859 2.55664 1.59792 1.99948 2.1755C0.984789 3.22881 0.369826 4.52466 0.147209 6.06502C0.038975 6.81281 0.00748889 6.96533 0.00109327 10.785C-0.00136659 12.0582 0.00109327 13.7339 0.00109327 15.9814C0.00109327 22.6526 0.00847284 24.6032 0.0404509 24.982C0.151144 26.3153 0.360232 27.1541 0.803006 28.0716C1.6492 29.828 3.26532 31.1464 5.16925 31.6384C5.82849 31.8081 6.55661 31.9016 7.49135 31.9459C7.88739 31.9631 11.924 31.9754 15.9631 31.9754C20.0022 31.9754 24.0413 31.9705 24.4275 31.9508C25.5098 31.8999 26.1383 31.8155 26.8332 31.6359C28.7494 31.1415 30.336 29.8427 31.1994 28.0618C31.6336 27.1664 31.8538 26.2956 31.9534 25.032C31.975 24.7565 31.9841 20.3639 31.9841 15.9773C31.9841 11.5899 31.9743 7.20541 31.9526 6.9299C31.8518 5.64586 31.6316 4.78245 31.1834 3.86984C30.8157 3.12279 30.4074 2.56489 29.8145 1.99445C28.7565 0.983942 27.4627 0.368978 25.9208 0.146607C25.1738 0.0386197 25.025 0.00664161 21.2023 0H15.9973Z" fill="black"/>
<path d="M15.9919 3.93652C12.7852 3.93652 12.3828 3.95054 11.1233 4.00786C9.86635 4.06542 9.00835 4.26442 8.25761 4.55641C7.48103 4.85799 6.82228 5.2614 6.16599 5.91794C5.50921 6.57423 5.10579 7.23297 4.80323 8.00931C4.51051 8.7603 4.31126 9.61854 4.25468 10.875C4.19835 12.1345 4.18359 12.5372 4.18359 15.7438C4.18359 18.9505 4.19786 19.3517 4.25493 20.6111C4.31274 21.8681 4.51174 22.7261 4.80348 23.4769C5.1053 24.2534 5.50872 24.9122 6.16525 25.5685C6.8213 26.2253 7.48005 26.6297 8.25613 26.9312C9.00737 27.2232 9.86561 27.4222 11.1224 27.4798C12.3818 27.5371 12.784 27.5511 15.9904 27.5511C19.1973 27.5511 19.5985 27.5371 20.858 27.4798C22.115 27.4222 22.9739 27.2232 23.7252 26.9312C24.5015 26.6297 25.1593 26.2253 25.8153 25.5685C26.4721 24.9122 26.8755 24.2535 27.1781 23.4771C27.4683 22.7261 27.6676 21.8679 27.7266 20.6114C27.7832 19.3519 27.798 18.9505 27.798 15.7438C27.798 12.5372 27.7832 12.1347 27.7266 10.8753C27.6676 9.6183 27.4683 8.7603 27.1781 8.00955C26.8755 7.23297 26.4721 6.57423 25.8153 5.91794C25.1585 5.26116 24.5018 4.85774 23.7244 4.55641C22.9717 4.26442 22.1132 4.06542 20.8562 4.00786C19.5968 3.95054 19.1958 3.93652 15.9882 3.93652H15.9919ZM14.9327 6.0643C15.247 6.06381 15.5978 6.0643 15.9919 6.0643C19.1444 6.0643 19.5181 6.07561 20.763 6.13219C21.9142 6.18483 22.539 6.37719 22.9552 6.5388C23.5062 6.75281 23.8991 7.00864 24.3121 7.42189C24.7254 7.83515 24.9812 8.22872 25.1957 8.77973C25.3573 9.19545 25.5499 9.82025 25.6023 10.9715C25.6589 12.2161 25.6712 12.59 25.6712 15.7411C25.6712 18.8922 25.6589 19.2661 25.6023 20.5108C25.5496 21.662 25.3573 22.2868 25.1957 22.7025C24.9817 23.2535 24.7254 23.6459 24.3121 24.0589C23.8988 24.4721 23.5065 24.728 22.9552 24.942C22.5395 25.1043 21.9142 25.2962 20.763 25.3488C19.5183 25.4054 19.1444 25.4177 15.9919 25.4177C12.8391 25.4177 12.4654 25.4054 11.2207 25.3488C10.0695 25.2957 9.44473 25.1033 9.02828 24.9417C8.47727 24.7277 8.08369 24.4719 7.67044 24.0586C7.25718 23.6454 7.00136 23.2528 6.78686 22.7015C6.62525 22.2858 6.43264 21.661 6.38024 20.5098C6.32367 19.2651 6.31235 18.8912 6.31235 15.7382C6.31235 12.5851 6.32367 12.2132 6.38024 10.9685C6.43289 9.8173 6.62525 9.1925 6.78686 8.77629C7.00087 8.22528 7.25718 7.8317 7.67044 7.41845C8.08369 7.00519 8.47727 6.74937 9.02828 6.53487C9.44449 6.37252 10.0695 6.18065 11.2207 6.12776C12.31 6.07857 12.7321 6.06381 14.9327 6.06135V6.0643ZM22.2945 8.0248C21.5123 8.0248 20.8776 8.65871 20.8776 9.44119C20.8776 10.2234 21.5123 10.8581 22.2945 10.8581C23.0768 10.8581 23.7114 10.2234 23.7114 9.44119C23.7114 8.65895 23.0768 8.02431 22.2945 8.02431V8.0248ZM15.9919 9.68028C12.6433 9.68028 9.92834 12.3952 9.92834 15.7438C9.92834 19.0924 12.6433 21.8061 15.9919 21.8061C19.3405 21.8061 22.0544 19.0924 22.0544 15.7438C22.0544 12.3952 19.3405 9.68028 15.9919 9.68028ZM15.9919 11.8081C18.1654 11.8081 19.9276 13.5701 19.9276 15.7438C19.9276 17.9174 18.1654 19.6796 15.9919 19.6796C13.8181 19.6796 12.0561 17.9174 12.0561 15.7438C12.0561 13.5701 13.8181 11.8081 15.9919 11.8081Z" fill="#6D3D94"/>
</svg>
