<svg width="24" height="24" viewBox="0 0 24 24" fill="none" xmlns="http://www.w3.org/2000/svg">
<path d="M11.8083 0C8.60162 0 8.19919 0.0140214 6.93974 0.071336C5.68276 0.128897 4.82476 0.327899 4.07401 0.619884C3.29744 0.921462 2.63869 1.32488 1.9824 1.98141C1.32562 2.6377 0.922199 3.29645 0.619637 4.07278C0.326914 4.82378 0.127666 5.68202 0.0710897 6.93851C0.014759 8.19796 0 8.60064 0 11.8073C0 15.014 0.0142674 15.4152 0.071336 16.6746C0.129143 17.9316 0.328145 18.7896 0.619884 19.5403C0.921708 20.3169 1.32512 20.9757 1.98166 21.632C2.6377 22.2887 3.29645 22.6931 4.07254 22.9947C4.82378 23.2867 5.68202 23.4857 6.93876 23.5433C8.1982 23.6006 8.60039 23.6146 11.8068 23.6146C15.0137 23.6146 15.4149 23.6006 16.6744 23.5433C17.9314 23.4857 18.7903 23.2867 19.5416 22.9947C20.3179 22.6931 20.9757 22.2887 21.6317 21.632C22.2885 20.9757 22.6919 20.3169 22.9945 19.5406C23.2847 18.7896 23.484 17.9314 23.543 16.6749C23.5996 15.4154 23.6144 15.014 23.6144 11.8073C23.6144 8.60064 23.5996 8.1982 23.543 6.93876C23.484 5.68177 23.2847 4.82378 22.9945 4.07303C22.6919 3.29645 22.2885 2.6377 21.6317 1.98141C20.9749 1.32463 20.3182 0.921216 19.5408 0.619884C18.7881 0.327899 17.9296 0.128897 16.6727 0.071336C15.4132 0.0140214 15.0122 0 11.8046 0H11.8083ZM10.7491 2.12777C11.0634 2.12728 11.4142 2.12777 11.8083 2.12777C14.9608 2.12777 15.3345 2.13909 16.5794 2.19567C17.7306 2.24831 18.3554 2.44067 18.7716 2.60228C19.3227 2.81629 19.7155 3.07211 20.1285 3.48537C20.5418 3.89862 20.7976 4.2922 21.0121 4.84321C21.1737 5.25892 21.3663 5.88373 21.4187 7.03494C21.4753 8.27963 21.4876 8.65352 21.4876 11.8046C21.4876 14.9557 21.4753 15.3296 21.4187 16.5743C21.3661 17.7255 21.1737 18.3503 21.0121 18.766C20.7981 19.317 20.5418 19.7093 20.1285 20.1224C19.7152 20.5356 19.3229 20.7914 18.7716 21.0054C18.3559 21.1678 17.7306 21.3597 16.5794 21.4123C15.3347 21.4689 14.9608 21.4812 11.8083 21.4812C8.65549 21.4812 8.28184 21.4689 7.03715 21.4123C5.88594 21.3592 5.26114 21.1668 4.84468 21.0052C4.29368 20.7912 3.9001 20.5354 3.48684 20.1221C3.07359 19.7089 2.81776 19.3163 2.60326 18.765C2.44165 18.3493 2.24905 17.7245 2.19665 16.5733C2.14007 15.3286 2.12876 14.9547 2.12876 11.8016C2.12876 8.6486 2.14007 8.27667 2.19665 7.03199C2.24929 5.88078 2.44165 5.25597 2.60326 4.83976C2.81727 4.28876 3.07359 3.89518 3.48684 3.48192C3.9001 3.06867 4.29368 2.81284 4.84468 2.59834C5.26089 2.43599 5.88594 2.24413 7.03715 2.19124C8.12638 2.14204 8.54849 2.12728 10.7491 2.12482V2.12777ZM18.1109 4.08828C17.3287 4.08828 16.6941 4.72218 16.6941 5.50466C16.6941 6.2869 17.3287 6.92154 18.1109 6.92154C18.8932 6.92154 19.5278 6.2869 19.5278 5.50466C19.5278 4.72243 18.8932 4.08779 18.1109 4.08779V4.08828ZM11.8083 5.74376C8.45969 5.74376 5.74475 8.4587 5.74475 11.8073C5.74475 15.1559 8.45969 17.8696 11.8083 17.8696C15.1569 17.8696 17.8708 15.1559 17.8708 11.8073C17.8708 8.4587 15.1569 5.74376 11.8083 5.74376ZM11.8083 7.87154C13.9818 7.87154 15.7441 9.63353 15.7441 11.8073C15.7441 13.9808 13.9818 15.7431 11.8083 15.7431C9.63451 15.7431 7.87252 13.9808 7.87252 11.8073C7.87252 9.63353 9.63451 7.87154 11.8083 7.87154Z" fill="#6D3D94"/>
</svg>
