<svg width="37" height="37" viewBox="0 0 37 37" fill="none" xmlns="http://www.w3.org/2000/svg">
<circle cx="18.2282" cy="18.2282" r="18.2282" fill="black"/>
<path fill-rule="evenodd" clip-rule="evenodd" d="M13.2637 9H23.6163C24.7461 9.00324 25.8287 9.45349 26.6276 10.2524C27.4265 11.0513 27.8768 12.1339 27.88 13.2637V23.5303C27.8763 24.6598 27.4259 25.742 26.6271 26.5406C25.8282 27.3391 24.7459 27.7892 23.6163 27.7924H13.2637C12.1341 27.7892 11.0518 27.3391 10.2529 26.5406C9.45408 25.742 9.00365 24.6598 9 23.5303V13.2637C9.00324 12.1339 9.45349 11.0513 10.2524 10.2524C11.0513 9.45349 12.1339 9.00324 13.2637 9Z" fill="white"/>
<path fill-rule="evenodd" clip-rule="evenodd" d="M16.558 16.2845H18.9441V17.5136H18.9779C19.3113 16.9175 20.1226 16.2845 21.3348 16.2845C23.8531 16.2845 24.3186 17.8517 24.3186 19.8905V24.2018H21.8311V20.3699C21.8311 19.4926 21.8127 18.3633 20.5374 18.3633C19.2622 18.3633 19.044 19.3174 19.044 20.3069V24.2095H16.558V16.2845ZM15.146 13.8845C15.146 14.1404 15.0701 14.3905 14.928 14.6033C14.7858 14.816 14.5838 14.9818 14.3474 15.0797C14.111 15.1777 13.8509 15.2033 13.5999 15.1534C13.349 15.1034 13.1184 14.9802 12.9375 14.7993C12.7566 14.6184 12.6334 14.3879 12.5835 14.1369C12.5335 13.886 12.5592 13.6258 12.6571 13.3894C12.755 13.153 12.9208 12.951 13.1336 12.8088C13.3463 12.6667 13.5964 12.5908 13.8523 12.5908C14.1953 12.5912 14.5241 12.7277 14.7666 12.9702C15.0092 13.2127 15.1456 13.5415 15.146 13.8845ZM12.5617 16.2845H15.146V24.2018H12.5617V16.2845Z" fill="black"/>
</svg>
