<svg width="26" height="25" viewBox="0 0 26 25" fill="none" xmlns="http://www.w3.org/2000/svg">
<path d="M19.3867 0H5.65427C2.5315 0 0 2.5315 0 5.65427V19.2713C0 22.3941 2.5315 24.9256 5.65427 24.9256H19.3867C22.5095 24.9256 25.041 22.3941 25.041 19.2713V5.65427C25.041 2.5315 22.5095 0 19.3867 0Z" fill="#6D3D94"/>
<path fill-rule="evenodd" clip-rule="evenodd" d="M10.0243 9.66183H13.1882V11.2836H13.2341C13.6748 10.4933 14.7523 9.66183 16.3589 9.66183C19.6998 9.66183 20.3175 11.7409 20.3175 14.4455V20.1639H17.0182L17.0177 15.0711C17.0177 13.9066 16.9937 12.408 15.302 12.408C13.5843 12.408 13.3207 13.6752 13.3207 14.9865V20.1639H10.0243V9.66183ZM8.15454 6.47839C8.15454 7.42526 7.38571 8.19409 6.43884 8.19409C5.49149 8.19409 4.72266 7.42526 4.72266 6.47839C4.72266 5.53104 5.49149 4.7627 6.43884 4.7627C7.38571 4.7627 8.15454 5.53104 8.15454 6.47839ZM4.72266 9.66183H8.15454V20.1639H4.72266V9.66183Z" fill="black"/>
</svg>
