<svg width="29" height="29" viewBox="0 0 29 29" fill="none" xmlns="http://www.w3.org/2000/svg">
<path d="M7.98217 11.9284C8.95853 13.6935 10.0822 15.3923 11.5397 16.9409C13.0039 18.4968 14.8169 19.9148 17.1744 21.1168L17.1768 21.118L17.1772 21.1168C17.349 21.2048 17.5126 21.2027 17.6662 21.1448C17.889 21.0611 18.121 20.8751 18.3466 20.65C18.5187 20.4778 18.7344 20.1937 18.9676 19.8856C19.8753 18.6868 20.9975 17.2051 22.5818 17.9423C22.6153 17.9577 22.6469 17.9757 22.6767 17.9959L27.9568 21.0442C27.9757 21.0552 27.9939 21.0668 28.0111 21.0791C28.7111 21.562 28.9969 22.3059 29 23.1386C29.0033 23.9975 28.6863 24.9588 28.2273 25.7717C27.6219 26.843 26.7199 27.551 25.6876 28.0309C24.7035 28.4882 23.6112 28.7315 22.5565 28.8867C20.9071 29.1298 19.352 28.9754 17.7684 28.4853C16.2226 28.0069 14.6588 27.2081 12.9539 26.1466L12.8297 26.0693C12.0448 25.5807 11.1999 25.0551 10.3779 24.4318C7.34165 22.1287 4.24973 18.8049 2.24485 15.1572C0.557171 12.0866 -0.366322 8.77472 0.13708 5.61679C0.412971 3.88389 1.15663 2.31086 2.43862 1.26889C3.56248 0.354999 5.07906 -0.140013 7.02847 0.0347948C7.25811 0.0547186 7.45163 0.186358 7.56067 0.371365L7.56208 0.370654L10.9426 6.12722C11.4406 6.7719 11.4958 7.4116 11.2266 8.0475C11.004 8.57358 10.544 9.05579 9.93418 9.51048C9.74868 9.66465 9.53108 9.82475 9.30664 9.98984C8.55189 10.5451 7.68858 11.18 7.98217 11.9284ZM10.5424 17.8892C8.98379 16.2331 7.79644 14.44 6.77217 12.5863C6.75423 12.5572 6.73818 12.5263 6.7245 12.4938C5.97541 10.7246 7.31923 9.73652 8.49289 8.87386C8.69232 8.72728 8.88537 8.58521 9.05954 8.44005L9.06002 8.44076C9.07016 8.43222 9.08078 8.42392 9.09188 8.41585C9.52684 8.0947 9.84025 7.78802 9.95991 7.50576C10.0281 7.34471 10.0029 7.16753 9.84993 6.96853C9.82373 6.93793 9.79966 6.90425 9.77842 6.8682L6.55976 1.38796C5.17464 1.33079 4.10081 1.70128 3.30665 2.34715C2.30622 3.16047 1.71998 4.42468 1.49553 5.83358C1.04594 8.6547 1.90052 11.667 3.4525 14.491C5.35896 17.9594 8.30834 21.1268 11.2086 23.3262C12.0061 23.9311 12.8078 24.4299 13.5526 24.8933L13.6768 24.9707C15.2859 25.9723 16.7489 26.7225 18.1732 27.1632C19.5599 27.5923 20.9189 27.7277 22.3573 27.5157C23.3035 27.3765 24.2721 27.1635 25.1111 26.7735C25.9019 26.4059 26.5856 25.8758 27.0307 25.0886C27.3838 24.4631 27.6278 23.7477 27.6257 23.1384C27.6243 22.7518 27.5143 22.4199 27.2469 22.2266L21.9958 19.1956C21.415 18.9392 20.6673 19.9264 20.0622 20.7255C19.8016 21.0699 19.5607 21.3877 19.3173 21.6308C18.9688 21.9785 18.5815 22.2767 18.1463 22.4399C17.6422 22.6294 17.109 22.6377 16.552 22.3521L16.5525 22.3512C14.0475 21.0739 12.1125 19.5578 10.5424 17.8892Z" fill="#6D3D94"/>
</svg>
