<svg width="18" height="19" viewBox="0 0 18 19" fill="none" xmlns="http://www.w3.org/2000/svg">
<path d="M11.6992 13.29L3.04492 18.2344L3.03711 18.2383L3.03027 18.2432C2.76915 18.4172 2.45986 18.5078 2.09473 18.5078C1.31089 18.5077 0.603135 18.0074 0.332031 17.2803L7.33984 9.07617L11.6992 13.29Z" fill="white" stroke="black" stroke-width="0.5"/>
<path d="M15.7715 7.73145L15.7773 7.73438C16.3619 8.04887 16.7708 8.68186 16.8203 9.35938C16.8183 10.026 16.416 10.6579 15.8281 10.9746L15.8242 10.9766L12.1523 13.0322L8.33008 9.35156L12.1016 5.62695L15.7715 7.73145Z" fill="white" stroke="black" stroke-width="0.5"/>
<path d="M2.09473 0.25C2.46652 0.25 2.82465 0.343738 3.08105 0.514648L3.09668 0.524414L11.6514 5.37012L7.32031 9.65137L0.328125 1.47266C0.552235 0.782811 1.27618 0.250153 2.09473 0.25Z" fill="white" stroke="black" stroke-width="0.5"/>
<path d="M7.61914 9.35449L0.25 16.6758V2.08203L7.61914 9.35449Z" fill="white" stroke="black" stroke-width="0.5"/>
</svg>
