<svg width="13" height="16" viewBox="0 0 13 16" fill="none" xmlns="http://www.w3.org/2000/svg">
<path fill-rule="evenodd" clip-rule="evenodd" d="M1.12886 0H7.82858V4.58429C7.82858 4.75647 7.96894 4.89615 8.14196 4.89615H13V14.8769C13 15.1841 12.8731 15.4647 12.6687 15.6688L12.6662 15.6713C12.4612 15.8741 12.1798 16 11.8714 16H1.12886C0.817995 16 0.535701 15.8738 0.33128 15.6703C0.12686 15.4669 0 15.186 0 14.8769V1.1231C0 0.814047 0.12686 0.533115 0.33128 0.329681C0.535701 0.126248 0.817995 0 1.12886 0ZM8.45565 0.0696861C8.48447 0.088943 8.51073 0.111725 8.53384 0.137497L12.8216 4.2721H8.45565V0.0696861ZM2.86722 13.1163C2.69389 13.1163 2.55353 12.9766 2.55353 12.8044C2.55353 12.6323 2.69389 12.4923 2.86722 12.4923H10.1328C10.3061 12.4923 10.4465 12.6323 10.4465 12.8044C10.4465 12.9766 10.3061 13.1163 10.1328 13.1163H2.86722ZM2.86722 10.7304C2.69389 10.7304 2.55353 10.5907 2.55353 10.4185C2.55353 10.246 2.69389 10.1064 2.86722 10.1064H10.0197C10.1931 10.1064 10.3334 10.246 10.3334 10.4185C10.3334 10.5907 10.1931 10.7304 10.0197 10.7304H2.86722ZM2.86722 8.34452C2.69389 8.34452 2.55353 8.20484 2.55353 8.03234C2.55353 7.86016 2.69389 7.72047 2.86722 7.72047H8.65473C8.82775 7.72047 8.96843 7.86016 8.96843 8.03234C8.96843 8.20484 8.82775 8.34452 8.65473 8.34452H2.86722ZM2.86722 5.95832C2.69389 5.95832 2.55353 5.81864 2.55353 5.64645C2.55353 5.47396 2.69389 5.33427 2.86722 5.33427H6.09838C6.27172 5.33427 6.41208 5.47396 6.41208 5.64645C6.41208 5.81864 6.27172 5.95832 6.09838 5.95832H2.86722ZM2.86722 3.57243C2.69389 3.57243 2.55353 3.43275 2.55353 3.26025C2.55353 3.08806 2.69389 2.94838 2.86722 2.94838H4.60715C4.78048 2.94838 4.92085 3.08806 4.92085 3.26025C4.92085 3.43275 4.78048 3.57243 4.60715 3.57243H2.86722Z" fill="white"/>
</svg>
