<svg width="37" height="37" viewBox="0 0 37 37" fill="none" xmlns="http://www.w3.org/2000/svg">
<circle cx="18.2282" cy="18.2282" r="18.2282" fill="black"/>
<path d="M24.2082 13C21.5193 13 20.014 14.7475 19.583 16.5465C19.0947 15.6298 18.7327 14.4037 18.4512 13.2636H14.7339V17.8757C14.7339 19.5487 13.9697 20.7862 12.4759 20.7862C10.982 20.7862 10.1259 19.5487 10.1259 17.8757L10.1431 13.2636H8V17.8757C8 19.2221 8.43668 20.4425 9.23531 21.3133C10.0569 22.2128 11.1773 22.6826 12.4758 22.6826C15.0613 22.6826 16.8654 20.706 16.8654 17.8757V14.7761C17.1354 15.796 17.7789 17.7554 19.0085 19.4743L17.8594 26H20.0369L20.7953 21.3764C21.0424 21.5827 21.3067 21.766 21.5882 21.9321C22.3179 22.3905 23.151 22.6483 24.0128 22.677C24.0128 22.677 24.145 22.6827 24.214 22.6827C26.8799 22.6827 29 20.6259 29 17.8471C29 15.0683 26.8742 13.0001 24.2082 13.0001M24.2082 20.7806C22.5592 20.7806 21.4676 19.5086 21.1631 19.0159C21.5538 15.8991 22.6971 14.9137 24.2082 14.9137C25.7021 14.9137 26.8626 16.1054 26.8626 17.8471C26.8626 19.5888 25.7021 20.7806 24.2082 20.7806Z" fill="white"/>
</svg>
