<svg width="22" height="22" viewBox="0 0 22 22" fill="none" xmlns="http://www.w3.org/2000/svg">
<path d="M10.5166 5.50684C13.2827 5.50703 15.5244 7.74949 15.5244 10.5156C15.5242 13.2816 13.2822 15.5232 10.5166 15.5234C7.75046 15.5234 5.508 13.2817 5.50781 10.5156C5.50781 7.74937 7.75035 5.50684 10.5166 5.50684Z" fill="white" stroke="black" stroke-width="0.5"/>
<path d="M5.74609 13.2705C6.22943 14.1082 6.92488 14.8047 7.7627 15.2881C8.60019 15.7712 9.54978 16.0253 10.5166 16.0254C11.4838 16.0254 12.4342 15.7709 13.2715 15.2871C13.4231 15.1995 13.5681 15.1021 13.71 15.001L10.374 20.7793C8.62145 20.7552 6.90337 20.2851 5.38379 19.4082C3.82279 18.5073 2.52627 17.211 1.625 15.6504C0.723933 14.0899 0.25 12.3195 0.25 10.5176C0.250034 8.86198 0.65104 7.23347 1.41504 5.76953L5.74609 13.2705Z" fill="url(#paint0_linear_997_989)" stroke="black" stroke-width="0.5"/>
<path d="M19.4756 5.50879C20.3314 7.03838 20.7828 8.76209 20.7832 10.5166C20.7836 12.3186 20.3089 14.089 19.4082 15.6494C18.5073 17.21 17.211 18.5064 15.6504 19.4072C14.2166 20.2352 12.6059 20.7013 10.9561 20.7715L15.2871 13.2715C15.7708 12.434 16.0257 11.4843 16.0254 10.5176C16.0254 9.55056 15.7709 8.60003 15.2871 7.7627C14.8034 6.92546 14.1083 6.22945 13.2705 5.74609C13.1183 5.65824 12.9608 5.58134 12.8018 5.50879H19.4756Z" fill="url(#paint1_linear_997_989)" stroke="black" stroke-width="0.5"/>
<path d="M10.5166 0.25C12.3186 0.250038 14.089 0.723848 15.6494 1.625V1.62598C17.0831 2.45364 18.2929 3.61504 19.1787 5.00879H10.5176C9.55051 5.00836 8.60002 5.26236 7.7627 5.74609C7.02977 6.16896 6.40585 6.75428 5.9375 7.45508L5.74609 7.7627C5.26271 8.60008 5.00879 9.5506 5.00879 10.5176C5.0088 10.6926 5.01957 10.8668 5.03613 11.04L1.7002 5.26074C2.59708 3.75542 3.86472 2.50327 5.38379 1.62598C6.94432 0.724801 8.71459 0.25 10.5166 0.25Z" fill="url(#paint2_linear_997_989)" stroke="black" stroke-width="0.5"/>
<defs>
<linearGradient id="paint0_linear_997_989" x1="11.6547" y1="20.3754" x2="2.54811" y2="4.60226" gradientUnits="userSpaceOnUse">
<stop offset="1" stop-color="white"/>
</linearGradient>
<linearGradient id="paint1_linear_997_989" x1="8.98312" y1="21.0604" x2="18.0897" y2="5.28731" gradientUnits="userSpaceOnUse">
<stop offset="1" stop-color="white"/>
</linearGradient>
<linearGradient id="paint2_linear_997_989" x1="1.4101" y1="6.57324" x2="19.6233" y2="6.57324" gradientUnits="userSpaceOnUse">
<stop offset="1" stop-color="white"/>
</linearGradient>
</defs>
</svg>
