<svg width="37" height="37" viewBox="0 0 37 37" fill="none" xmlns="http://www.w3.org/2000/svg">
<circle cx="18.2282" cy="18.2282" r="18.2282" fill="black"/>
<path fill-rule="evenodd" clip-rule="evenodd" d="M25.083 10.9065C24.1607 9.98188 23.063 9.24884 21.8536 8.7499C20.6442 8.25097 19.3473 7.99608 18.0381 8.00005C12.5499 8.00005 8.08333 12.4455 8.08333 17.9101C8.08323 19.6491 8.54306 21.3576 9.41664 22.8638L8 28L13.2799 26.621C14.7392 27.4126 16.3744 27.828 18.0365 27.8292C20.0068 27.8296 21.9329 27.2486 23.5713 26.1596C25.2098 25.0706 26.4869 23.5226 27.2412 21.7114C27.9954 19.9001 28.193 17.907 27.8088 15.984C27.4247 14.061 26.4761 12.2946 25.083 10.9081V10.9065ZM18.0415 26.16C16.5577 26.1593 15.1015 25.7611 13.8257 25.0073L13.5224 24.8274L10.3891 25.6442L11.2224 22.6051L11.0266 22.2933C9.94071 20.5776 9.52865 18.5238 9.86925 16.5247C10.2098 14.5256 11.2792 12.7217 12.8727 11.4581C14.4662 10.1944 16.472 9.55976 18.5063 9.67554C20.5406 9.79132 22.4605 10.6494 23.8988 12.0856C25.0574 13.2387 25.8463 14.7077 26.1659 16.3069C26.4855 17.9061 26.3214 19.5636 25.6944 21.0701C25.0674 22.5765 24.0056 23.8641 22.6432 24.77C21.2809 25.676 19.6792 26.1597 18.0406 26.16H18.0415ZM22.583 19.9856C22.333 19.8604 21.1106 19.2633 20.8839 19.1804C20.6572 19.0975 20.4906 19.0552 20.3214 19.3056C20.1522 19.5561 19.6781 20.1108 19.5331 20.2775C19.3881 20.4441 19.2423 20.4657 18.9956 20.3405C18.7489 20.2153 17.9431 19.9541 16.9956 19.1099C16.45 18.6091 15.9811 18.0313 15.604 17.3951C15.4582 17.1463 15.5882 17.0128 15.7148 16.8918C15.8415 16.7707 15.9648 16.6032 16.0873 16.4581C16.1909 16.333 16.2752 16.1933 16.3373 16.0435C16.3704 15.9752 16.3859 15.8998 16.3824 15.8241C16.3789 15.7484 16.3565 15.6748 16.3173 15.6098C16.2498 15.4854 15.7498 14.2665 15.5498 13.7698C15.3498 13.2731 15.1424 13.3551 14.989 13.3435C14.8357 13.3319 14.6782 13.3361 14.514 13.3361C14.3875 13.339 14.2629 13.368 14.1482 13.4213C14.0334 13.4745 13.931 13.5508 13.8474 13.6454C13.6232 13.8917 12.9791 14.4928 12.9791 15.7118C12.9791 16.9307 13.8699 18.1066 13.9949 18.2741C14.1199 18.4416 15.7498 20.9417 18.2498 22.0139C18.8431 22.2676 19.3064 22.4202 19.6664 22.5379C20.1741 22.6903 20.7103 22.7235 21.2331 22.6349C21.7114 22.5653 22.7047 22.0371 22.9139 21.4591C23.123 20.8811 23.1222 20.3811 23.0597 20.2824C22.9972 20.1838 22.8355 20.1116 22.5847 19.9848L22.583 19.9856Z" fill="white"/>
</svg>
