<svg width="45" height="33" viewBox="0 0 45 33" fill="none" xmlns="http://www.w3.org/2000/svg">
<path d="M40.1178 4.81441C37.0104 1.71578 32.8297 0 28.4085 0C23.9873 0 19.8066 1.71532 16.6992 4.81441L16.3662 5.14641C15.5709 5.0173 14.8495 4.94352 14.0541 4.94352C10.3543 4.94352 6.76598 6.40062 4.12049 9.09394C-1.3735 14.5723 -1.3735 23.4265 4.12049 28.9049C6.76552 31.5424 10.2804 33 14.0541 33H28.7604C33.1261 32.9262 37.1773 31.2109 40.2113 28.1856C46.6116 21.7112 46.6116 11.215 40.1188 4.81441H40.1178ZM14.0907 29.9747C11.1122 29.9747 8.39323 28.7205 6.33963 26.5989C2.02943 22.3009 2.02943 15.3839 6.33963 11.1413C8.39323 9.09348 11.1677 7.91305 14.0907 7.91305H14.1647C14.7566 7.91305 15.219 7.98682 15.7554 8.04216C16.3473 8.17127 16.8837 8.24504 17.4756 8.42949C18.5299 8.76148 19.5292 9.29637 20.38 9.88658C20.7684 10.2186 21.2494 10.4768 21.5638 10.8826L21.8967 11.2146L26.3919 15.697C26.9838 16.2872 26.9838 17.2094 26.3919 17.8734C26.059 18.2054 25.726 18.3345 25.3376 18.3345C24.9492 18.3345 24.5422 18.2054 24.2833 17.8734L20.5835 14.1841L19.7881 13.391C19.6586 13.2619 19.5292 13.1881 19.4552 13.059C18.4009 12.1368 17.1431 11.5466 15.7554 11.2699C15.293 11.1408 14.7566 11.1408 14.2941 11.1408H14.0907C12.0371 11.2146 10.1874 12.0077 8.72617 13.4463C5.61872 16.545 5.61872 21.5074 8.72617 24.606C10.2429 26.1184 12.167 26.9115 14.3496 26.9115H15.7369L17.0686 28.1658C17.7345 28.8297 18.4004 29.4937 19.1958 29.9548H14.0902V29.9733L14.0907 29.9747ZM37.9907 26.0087C36.6035 27.392 34.9383 28.4438 33.0886 29.1073C32.4967 29.3102 31.9603 29.4393 31.3684 29.6422C30.4991 29.8451 29.5743 29.9742 28.649 29.9742H28.39C25.2081 29.9742 22.2301 28.9229 19.8436 26.9305C19.5107 26.6722 19.1777 26.3402 18.8448 26.0636L12.4815 19.7183C11.8896 19.1281 11.8896 18.2059 12.4815 17.5419C12.8144 17.2099 13.1473 17.0808 13.5358 17.0808C13.9242 17.0808 14.3311 17.2099 14.5901 17.5419L20.8794 23.8134C21.4713 24.4036 22.1372 24.8647 22.8031 25.3258C24.3938 26.3218 26.2439 26.8382 28.2231 26.8382C29.0924 26.8382 30.0173 26.7091 30.8126 26.5062C31.349 26.3771 31.8669 26.1742 32.3293 25.9714C33.5131 25.4365 34.6414 24.7171 35.6407 23.7212C39.6735 19.6998 39.6735 13.0963 35.6407 9.05659C33.5871 7.00882 30.9421 6.01283 28.2971 6.01283C26.2435 6.01283 24.2643 6.60304 22.4701 7.80192C21.6008 7.13793 20.676 6.54771 19.6212 6.0866C22.1372 4.03883 25.2446 2.98797 28.2971 2.98797C31.7379 2.98797 35.1783 4.31596 37.8238 6.88017C43.2253 12.211 43.2253 20.7332 37.9903 26.0087H37.9907Z" fill="white"/>
</svg>
