<svg width="41" height="47" viewBox="0 0 41 47" fill="none" xmlns="http://www.w3.org/2000/svg">
<path d="M33.3041 15.1957C33.3041 11.025 30.861 7.36229 27.2098 5.33759L29.2284 1.76213C29.2895 1.658 29.3286 1.54288 29.3436 1.4236C29.3586 1.30431 29.3491 1.18329 29.3156 1.06769C29.2822 0.952084 29.2254 0.844251 29.1488 0.75057C29.0721 0.656889 28.9772 0.579263 28.8694 0.522288C28.6575 0.406851 28.4076 0.378748 28.1746 0.444149C27.9416 0.509549 27.7445 0.663108 27.6267 0.871113L25.5579 4.54136C22.3081 3.28766 18.6958 3.28766 15.4459 4.54136L13.3733 0.871113C13.3154 0.767752 13.2371 0.67668 13.1432 0.603142C13.0492 0.529605 12.9414 0.475054 12.8258 0.442632C12.7103 0.41021 12.5894 0.400556 12.4701 0.414227C12.3508 0.427898 12.2354 0.464623 12.1306 0.522288C12.0254 0.579253 11.9327 0.656102 11.8578 0.74841C11.7829 0.840719 11.7274 0.946662 11.6944 1.06014C11.6614 1.17362 11.6516 1.29239 11.6655 1.40962C11.6794 1.52684 11.7168 1.6402 11.7755 1.74318L13.794 5.33759C10.139 7.36229 7.71911 11.025 7.71911 15.1957H33.3041ZM37.6267 15.1957C38.0701 15.1957 38.509 15.2815 38.9185 15.4483C39.328 15.6151 39.7001 15.8595 40.0134 16.1676C40.3266 16.4758 40.575 16.8415 40.7443 17.244C40.9136 17.6465 41.0005 18.0778 41 18.5133V30.2672C41.0005 30.7027 40.9136 31.134 40.7443 31.5365C40.575 31.939 40.3266 32.3048 40.0134 32.6129C39.7001 32.921 39.328 33.1655 38.9185 33.3322C38.509 33.499 38.0701 33.5848 37.6267 33.5848C36.7311 33.5848 35.8721 33.2353 35.2388 32.6131C34.6054 31.9909 34.2496 31.1471 34.2496 30.2672V18.5133C34.2496 17.6334 34.6054 16.7896 35.2388 16.1674C35.8721 15.5452 36.7311 15.1957 37.6267 15.1957ZM3.37711 15.1957C4.27278 15.1957 5.13176 15.5452 5.76509 16.1674C6.39842 16.7896 6.75422 17.6334 6.75422 18.5133V30.2672C6.75422 31.1471 6.39842 31.9909 5.76509 32.6131C5.13176 33.2353 4.27278 33.5848 3.37711 33.5848C2.48279 33.5848 1.62497 33.2363 0.991865 32.6158C0.358756 31.9953 0.002053 31.1534 8.82263e-06 30.2748V18.5209C-0.00100635 18.0846 0.0855959 17.6524 0.254857 17.249C0.424118 16.8456 0.672712 16.479 0.986407 16.1701C1.3001 15.8612 1.67273 15.6162 2.08297 15.449C2.4932 15.2818 2.93298 15.1957 3.37711 15.1957ZM19.0932 37.4636V43.6818C19.0932 44.5617 18.7374 45.4055 18.1041 46.0277C17.4707 46.6499 16.6118 46.9994 15.7161 46.9994C14.8221 46.9974 13.9655 46.6469 13.3345 46.0248C12.7034 45.4027 12.3495 44.56 12.3506 43.6818V37.4636H10.8067C9.98785 37.4636 9.2025 37.144 8.62345 36.5752C8.04441 36.0064 7.71911 35.2348 7.71911 34.4304V16.1929H33.3041V34.4228C33.3041 35.2272 32.9787 35.9988 32.3997 36.5676C31.8207 37.1365 31.0353 37.456 30.2164 37.456H28.6726V43.6742C28.6726 44.5541 28.3168 45.398 27.6835 46.0201C27.0501 46.6423 26.1912 46.9919 25.2955 46.9919C24.3998 46.9919 23.5408 46.6423 22.9075 46.0201C22.2742 45.398 21.9184 44.5541 21.9184 43.6742V37.4636H19.0932Z" fill="white"/>
<path d="M15.1524 9.54184C15.1524 9.43219 15.1192 9.32502 15.0571 9.2339C14.995 9.14279 14.9068 9.07184 14.8036 9.03005C14.7004 8.98827 14.5869 8.97753 14.4775 8.9992C14.3681 9.02087 14.2677 9.07397 14.1891 9.15177C14.1104 9.22956 14.0571 9.32855 14.0358 9.43619C14.0144 9.54382 14.0262 9.65524 14.0694 9.75632C14.1126 9.8574 14.1855 9.9436 14.2786 10.004C14.3718 10.0643 14.4811 10.0962 14.5927 10.0954C14.6666 10.0954 14.7397 10.0811 14.8078 10.0532C14.876 10.0253 14.9378 9.9845 14.9898 9.93304C15.0419 9.88159 15.083 9.82053 15.1109 9.75339C15.1388 9.68625 15.1529 9.61435 15.1524 9.54184Z" fill="white"/>
<path d="M14.6665 9.54423C14.6709 9.53196 14.6709 9.51858 14.6665 9.50631C14.6547 9.49798 14.6405 9.4935 14.6259 9.4935C14.6114 9.4935 14.5972 9.49798 14.5854 9.50631C14.5818 9.5187 14.5818 9.53185 14.5854 9.54423C14.5848 9.55184 14.5859 9.55949 14.5886 9.56665C14.5914 9.57381 14.5956 9.5803 14.6011 9.5857C14.6066 9.5911 14.6132 9.59527 14.6205 9.59793C14.6278 9.60059 14.6356 9.60167 14.6433 9.6011C14.6559 9.60469 14.6693 9.60469 14.6819 9.6011C14.6873 9.5877 14.6873 9.5728 14.6819 9.5594L14.6665 9.54423ZM15.365 8.78592C15.4644 8.88314 15.5431 8.99866 15.5969 9.12586C15.6507 9.25306 15.6784 9.38944 15.6784 9.52717C15.6784 9.6649 15.6507 9.80128 15.5969 9.92848C15.5431 10.0557 15.4644 10.1712 15.365 10.2684C15.164 10.4648 14.892 10.575 14.6086 10.575C14.3251 10.575 14.0531 10.4648 13.8521 10.2684C13.747 10.1724 13.6627 10.0565 13.6042 9.9278C13.5456 9.79906 13.5141 9.66006 13.5114 9.51909C13.5087 9.37811 13.535 9.23806 13.5886 9.10726C13.6422 8.97646 13.722 8.85761 13.8234 8.75778C13.9248 8.65796 14.0455 8.5792 14.1785 8.52621C14.3115 8.47322 14.454 8.44708 14.5975 8.44936C14.7411 8.45163 14.8826 8.48226 15.0138 8.53943C15.145 8.5966 15.2632 8.67914 15.3612 8.78212L15.365 8.78592Z" fill="#C5AF9F"/>
<path d="M26.9742 9.54185C26.9742 9.43237 26.9411 9.32534 26.8792 9.2343C26.8173 9.14327 26.7293 9.07232 26.6263 9.03042C26.5233 8.98852 26.41 8.97756 26.3007 8.99892C26.1914 9.02028 26.091 9.073 26.0122 9.15042C25.9334 9.22784 25.8797 9.32647 25.858 9.43386C25.8363 9.54124 25.8474 9.65254 25.8901 9.75369C25.9327 9.85485 26.0049 9.9413 26.0976 10.0021C26.1903 10.063 26.2992 10.0954 26.4107 10.0954C26.5601 10.0954 26.7034 10.0371 26.8091 9.93328C26.9148 9.82947 26.9742 9.68867 26.9742 9.54185Z" fill="white"/>
<path d="M26.4653 9.54423C26.4697 9.53196 26.4697 9.51858 26.4653 9.50632C26.4535 9.49798 26.4393 9.4935 26.4248 9.4935C26.4102 9.4935 26.3961 9.49798 26.3842 9.50632C26.3806 9.5187 26.3806 9.53185 26.3842 9.54423C26.3837 9.55184 26.3848 9.55949 26.3875 9.56665C26.3902 9.57381 26.3944 9.5803 26.3999 9.5857C26.4054 9.5911 26.412 9.59527 26.4193 9.59793C26.4266 9.60059 26.4344 9.60167 26.4421 9.6011C26.4547 9.60469 26.4681 9.60469 26.4807 9.6011C26.4861 9.5877 26.4861 9.5728 26.4807 9.5594L26.4653 9.54423ZM27.1639 8.78592C27.3526 8.98522 27.4552 9.24874 27.4501 9.52092C27.4449 9.79309 27.3323 10.0527 27.1362 10.2449C26.94 10.4372 26.6754 10.5471 26.3984 10.5514C26.1213 10.5558 25.8533 10.4544 25.6509 10.2684C25.5459 10.1724 25.4615 10.0565 25.403 9.9278C25.3445 9.79906 25.3129 9.66006 25.3102 9.51909C25.3076 9.37812 25.3338 9.23806 25.3874 9.10726C25.441 8.97646 25.5209 8.85761 25.6222 8.75778C25.7236 8.65796 25.8444 8.5792 25.9774 8.52621C26.1104 8.47322 26.2529 8.44708 26.3964 8.44936C26.5399 8.45163 26.6815 8.48226 26.8127 8.53943C26.9438 8.5966 27.062 8.67914 27.16 8.78212L27.1639 8.78592Z" fill="#C5AF9F"/>
</svg>
