<svg width="59" height="44" viewBox="0 0 59 44" fill="none" xmlns="http://www.w3.org/2000/svg">
<path fill-rule="evenodd" clip-rule="evenodd" d="M58.7632 20.5604C58.3406 20.1001 52.9438 12.6945 52.0316 11.4706C51.0521 10.2468 50.6295 10.4769 49.9957 10.5554C49.3668 10.6338 42.5631 11.9309 41.7901 12.0041C41.0171 12.1558 40.5273 12.4643 41.0171 13.2279C41.4396 13.9131 45.9241 20.7905 46.9084 22.3961L29.0279 27.056L14.8637 1.15708C14.3019 0.241827 14.1627 -0.0667428 12.8999 0.0117072C11.6371 0.0901572 1.75095 1.00541 1.04994 1.00541C0.344128 1.08386 -0.424101 1.3872 0.276908 3.22293C0.977917 5.05343 12.1989 31.329 12.4773 32.0925C12.7558 32.8561 13.6009 34.0799 15.4926 33.6197C17.4564 33.0862 24.188 31.1773 27.9043 30.1051C29.8681 33.923 33.7957 41.7157 34.5687 42.8611C35.5482 44.3883 36.254 44.0849 37.7233 43.6247C38.914 43.2429 56.0984 36.5223 56.8666 36.1406C57.6396 35.7588 58.1294 35.5286 57.5676 34.6866C57.1451 34.0747 52.6605 27.4274 50.2742 23.9913C51.8875 23.531 57.7068 21.8522 58.3406 21.6221C59.0416 21.4024 59.1809 21.0206 58.7632 20.5604ZM26.2911 27.8196C26.0798 27.8981 16.0544 30.4922 15.5599 30.6438C14.9981 30.7955 14.9981 30.7223 14.9981 30.4922C14.8637 30.262 3.08094 3.67794 2.86968 3.3746C2.73044 3.07126 2.73044 2.76269 2.86968 2.76269C3.00892 2.76269 12.3381 1.84744 12.6166 1.84744C12.9671 1.84744 12.8951 1.92589 13.0391 2.15078C13.0391 2.15078 26.1518 26.8259 26.3631 27.2077C26.6416 27.5895 26.5023 27.7412 26.2911 27.8196ZM54.4851 33.5465C54.6243 33.8498 54.8356 34.0067 54.2738 34.1584C53.7841 34.3885 37.3728 40.4239 37.0223 40.5756C36.6718 40.7273 36.4605 40.8057 36.0428 40.1154C35.6203 39.4302 30.2907 29.42 30.2907 29.42L47.7535 24.4567C48.176 24.3051 48.3152 24.2266 48.5937 24.6869C48.8722 25.2203 54.3458 33.3164 54.4851 33.5465ZM55.6038 20.1001C55.1813 20.1786 48.8002 21.9359 48.8002 21.9359L43.5426 14.1432C43.4034 13.9131 43.2641 13.6829 43.6146 13.6097C43.9651 13.5313 49.9285 12.3859 50.207 12.3127C50.4855 12.2342 50.6968 12.161 51.0473 12.6945C51.3978 13.1547 55.8871 19.415 56.0984 19.6451C56.3048 19.8753 56.0263 20.0269 55.6038 20.1001Z" fill="white"/>
</svg>
