<svg width="20" height="20" viewBox="0 0 20 20" fill="none" xmlns="http://www.w3.org/2000/svg">
<path d="M19.2648 11.6337C19.358 11.1031 19.4067 10.5573 19.4067 9.9998C19.4067 4.80514 15.1949 0.593073 9.99961 0.593073C9.44204 0.593073 8.89627 0.641128 8.36581 0.734504C7.54892 0.266453 6.60196 0 5.59293 0C2.50373 0 0 2.50435 0 5.59317C0 6.60194 0.266405 7.54937 0.735167 8.36631C0.641257 8.89649 0.59332 9.44228 0.59332 9.9998C0.59332 15.1949 4.80511 19.4073 9.99961 19.4073C10.5576 19.4073 11.1033 19.3585 11.6342 19.2651C12.4511 19.7335 13.398 20 14.4063 20C17.4955 20 20 17.496 20 14.4064C20 13.3977 19.7324 12.4506 19.2648 11.6337ZM10.0385 16.0169C6.69627 16.0169 5.16935 14.3252 5.16935 13.0824C5.16935 12.4448 5.67151 12.0064 6.31356 12.0064C7.74303 12.0064 7.37092 14.1392 10.0385 14.1392C11.4035 14.1392 12.2031 13.3223 12.2031 12.5561C12.2031 12.0951 11.9375 11.5825 11.0385 11.3582L8.0668 10.6093C5.67387 10.0045 5.25422 8.68004 5.25422 7.45326C5.25422 4.90438 7.59725 3.98312 9.83065 3.98312C11.8864 3.98312 14.3308 5.11105 14.3308 6.64062C14.3308 7.29581 13.778 7.65213 13.1356 7.65213C11.9151 7.65213 12.1187 5.94558 9.66051 5.94558C8.44008 5.94558 7.79686 6.51364 7.79686 7.31183C7.79686 8.10807 8.74067 8.37843 9.57721 8.57065L11.7764 9.0637C14.1859 9.60481 14.8303 11.0094 14.8303 12.3471C14.8303 14.4182 13.2173 16.0169 10.0385 16.0169Z" fill="#C5AF9F"/>
</svg>
