<svg width="20" height="20" viewBox="0 0 20 20" fill="none" xmlns="http://www.w3.org/2000/svg">
<path fill-rule="evenodd" clip-rule="evenodd" d="M17.0859 2.9063C15.2061 1.0331 12.7059 0.000975688 10.042 0C4.55287 0 0.0854904 4.44547 0.0835688 9.90971C0.0826276 11.6565 0.541491 13.3615 1.4129 14.8641L0 20L5.27911 18.6219C6.7335 19.4117 8.37127 19.8275 10.0377 19.828H10.042C15.5302 19.828 19.9981 15.3821 20 9.91779C20.0009 7.26958 18.9662 4.78001 17.0859 2.90677V2.9063ZM10.042 18.1543H10.0387C8.55366 18.1539 7.09688 17.7566 5.82582 17.0063L5.52358 16.8276L2.39079 17.6454L3.22687 14.6056L3.03012 14.2939C2.20169 12.9823 1.76385 11.4664 1.76479 9.91022C1.76671 5.36874 5.47966 1.67362 10.0454 1.67362C12.2561 1.67459 14.3342 2.53234 15.8969 4.08954C17.4598 5.64627 18.3197 7.71625 18.3188 9.91685C18.3168 14.4588 14.604 18.1539 10.042 18.1539V18.1543ZM14.5819 11.9854C14.3332 11.8614 13.1099 11.2626 12.8816 11.1799C12.6534 11.0972 12.4877 11.0559 12.322 11.3039C12.1563 11.552 11.6794 12.1099 11.5342 12.2747C11.389 12.4401 11.2439 12.4606 10.9951 12.3365C10.7463 12.2125 9.94461 11.9512 8.99394 11.1077C8.25433 10.4509 7.75484 9.6403 7.60974 9.39221C7.46456 9.14419 7.59445 9.01016 7.71856 8.88707C7.83029 8.77592 7.96735 8.59772 8.09198 8.45324C8.2166 8.30876 8.25766 8.20522 8.34072 8.04029C8.42386 7.87489 8.38229 7.73053 8.32025 7.60642C8.25813 7.48243 7.7606 6.26353 7.55288 5.76792C7.35088 5.28514 7.14562 5.35071 6.99331 5.34263C6.84809 5.33549 6.68244 5.33409 6.51629 5.33409C6.35013 5.33409 6.0808 5.39583 5.85256 5.64392C5.62432 5.89191 4.98162 6.49117 4.98162 7.70953C4.98162 8.92797 5.87311 10.106 5.99774 10.2714C6.12233 10.4367 7.75245 12.9377 10.2483 14.0107C10.8418 14.2658 11.3054 14.4184 11.6669 14.5324C12.2628 14.7211 12.8052 14.6945 13.234 14.6308C13.712 14.5595 14.7061 14.0316 14.9134 13.4532C15.1205 12.8749 15.1205 12.3788 15.0585 12.2757C14.9965 12.1726 14.8303 12.1103 14.5815 11.9863L14.5819 11.9854Z" fill="#C5AF9F"/>
</svg>
