<svg width="20" height="15" viewBox="0 0 20 15" fill="none" xmlns="http://www.w3.org/2000/svg">
<path d="M15.4754 8.06444C14.5561 8.06444 13.6909 7.67463 12.9112 7.04146L13.1005 6.14466L13.105 6.11311C13.2785 5.16223 13.8125 3.56016 15.4732 3.56016C16.717 3.56016 17.7287 4.57188 17.7287 5.81568C17.731 7.05723 16.7192 8.06444 15.4754 8.06444ZM15.4754 1.2776C13.3551 1.2776 11.717 2.6521 11.0455 4.91663C10.0293 3.38666 9.25642 1.5525 8.80577 0.00675953H6.52546V5.93961C6.52546 7.11356 5.57458 8.06444 4.40063 8.06444C3.22668 8.06444 2.2758 7.11356 2.2758 5.93961V0H0V5.93285C0 8.36187 1.97386 10.356 4.40288 10.356C6.83191 10.356 8.80577 8.35962 8.80577 5.93285V4.93691C9.24966 5.86075 9.79045 6.79811 10.4507 7.6183L9.05588 14.1843H11.3858L12.3975 9.42542C13.2853 9.99324 14.3015 10.3493 15.4687 10.3493C17.9676 10.3493 20 8.30554 20 5.80216C20.0023 3.31005 17.9743 1.2776 15.4754 1.2776Z" fill="#C5AF9F"/>
</svg>
