<svg width="12" height="13" viewBox="0 0 12 13" fill="none" xmlns="http://www.w3.org/2000/svg">
<path d="M9.35039 2.90683C10.1531 2.90683 10.8038 2.25611 10.8038 1.45341C10.8038 0.650716 10.1531 0 9.35039 0C8.54769 0 7.89697 0.650716 7.89697 1.45341C7.89697 2.25611 8.54769 2.90683 9.35039 2.90683Z" fill="#C5AF9F"/>
<path d="M10.869 3.86027H4.21582V3.4243C4.21582 2.56804 5.07208 2.55182 5.50805 2.55182C6.00838 2.55182 6.23502 2.6005 6.23502 2.6005V0.242149C5.88138 0.198087 5.52528 0.176587 5.1689 0.177782C3.77985 0.177782 1.21163 0.56507 1.21163 3.50489V3.87866H0V6.05905H1.21163V10.6622H0.0811359V12.8426H5.53942V10.66H4.21474V6.05689H7.84692V10.66H6.71805V12.8404H12V10.66H10.869V3.86027Z" fill="#C5AF9F"/>
</svg>
