<svg width="32" height="37" viewBox="0 0 32 37" fill="none" xmlns="http://www.w3.org/2000/svg">
<path d="M25.5463 11.5463C25.5463 8.28971 23.6723 5.42985 20.8716 3.84893L22.42 1.05717C22.4668 0.975856 22.4969 0.885971 22.5084 0.792834C22.5199 0.699696 22.5126 0.605199 22.4869 0.514934C22.4613 0.42467 22.4177 0.340472 22.359 0.267325C22.3002 0.194177 22.2273 0.133566 22.1447 0.089079C21.9821 -0.0010556 21.7904 -0.0229988 21.6117 0.0280668C21.433 0.0791324 21.2818 0.199033 21.1914 0.361446L19.6045 3.22723C17.1117 2.24832 14.3409 2.24832 11.848 3.22723L10.2582 0.361446C10.2137 0.28074 10.1537 0.20963 10.0816 0.152211C10.0096 0.0947923 9.92684 0.0521984 9.83823 0.0268826C9.74963 0.00156667 9.65689 -0.00597111 9.56536 0.00470328C9.47383 0.0153777 9.38531 0.0440533 9.30491 0.089079C9.2242 0.133558 9.15309 0.193563 9.09567 0.265639C9.03825 0.337714 8.99566 0.420436 8.97034 0.509042C8.94503 0.597648 8.93749 0.690386 8.94816 0.781917C8.95884 0.873448 8.98752 0.961963 9.03254 1.04237L10.5809 3.84893C7.77728 5.42985 5.92104 8.28971 5.92104 11.5463H25.5463ZM28.8621 11.5463C29.2021 11.5463 29.5388 11.6133 29.853 11.7435C30.1671 11.8737 30.4524 12.0646 30.6928 12.3052C30.9331 12.5458 31.1236 12.8314 31.2535 13.1456C31.3833 13.4599 31.45 13.7967 31.4496 14.1367V23.3143C31.45 23.6544 31.3833 23.9912 31.2535 24.3054C31.1236 24.6197 30.9331 24.9053 30.6928 25.1459C30.4524 25.3865 30.1671 25.5773 29.853 25.7075C29.5388 25.8378 29.2021 25.9048 28.8621 25.9048C28.175 25.9048 27.5162 25.6319 27.0304 25.1461C26.5445 24.6602 26.2716 24.0014 26.2716 23.3143V14.1367C26.2716 13.4497 26.5445 12.7908 27.0304 12.305C27.5162 11.8192 28.175 11.5463 28.8621 11.5463ZM2.59046 11.5463C3.27749 11.5463 3.93638 11.8192 4.42218 12.305C4.90799 12.7908 5.18091 13.4497 5.18091 14.1367V23.3143C5.18091 24.0014 4.90799 24.6602 4.42218 25.1461C3.93638 25.6319 3.27749 25.9048 2.59046 25.9048C1.90445 25.9048 1.24646 25.6327 0.760823 25.1481C0.275189 24.6636 0.00157478 24.0063 6.76751e-06 23.3202V14.1426C-0.000771934 13.802 0.0656574 13.4645 0.195491 13.1495C0.325325 12.8345 0.516013 12.5483 0.756636 12.3071C0.997259 12.0659 1.28309 11.8746 1.59777 11.744C1.91244 11.6135 2.24978 11.5463 2.59046 11.5463ZM14.6457 28.9334V33.7886C14.6457 34.4757 14.3728 35.1346 13.887 35.6204C13.4011 36.1062 12.7423 36.3791 12.0552 36.3791C11.3695 36.3775 10.7124 36.1038 10.2284 35.6181C9.74432 35.1324 9.47287 34.4744 9.47366 33.7886V28.9334H8.28945C7.66131 28.9334 7.05889 28.6839 6.61473 28.2397C6.17057 27.7955 5.92104 27.1931 5.92104 26.565V12.3249H25.5463V26.5591C25.5463 27.1872 25.2968 27.7896 24.8526 28.2338C24.4084 28.6779 23.806 28.9275 23.1779 28.9275H21.9937V33.7827C21.9937 34.4697 21.7208 35.1286 21.235 35.6144C20.7492 36.1002 20.0903 36.3732 19.4032 36.3732C18.7162 36.3732 18.0573 36.1002 17.5715 35.6144C17.0857 35.1286 16.8128 34.4697 16.8128 33.7827V28.9334H14.6457Z" fill="#6E6E6E"/>
<path d="M11.2494 7.13234C11.2528 7.12277 11.2528 7.11232 11.2494 7.10274C11.2404 7.09623 11.2295 7.09273 11.2183 7.09273C11.2072 7.09273 11.1963 7.09623 11.1872 7.10274C11.1845 7.11241 11.1845 7.12267 11.1872 7.13234C11.1868 7.13829 11.1877 7.14426 11.1897 7.14985C11.1918 7.15544 11.1951 7.16051 11.1993 7.16473C11.2035 7.16894 11.2086 7.1722 11.2142 7.17427C11.2197 7.17635 11.2257 7.17719 11.2317 7.17675C11.2413 7.17955 11.2516 7.17955 11.2613 7.17675C11.2654 7.16629 11.2654 7.15465 11.2613 7.14419L11.2494 7.13234ZM11.7853 6.54024C11.8614 6.61615 11.9219 6.70636 11.9631 6.80568C12.0044 6.905 12.0256 7.01148 12.0256 7.11902C12.0256 7.22656 12.0044 7.33305 11.9631 7.43237C11.9219 7.53169 11.8614 7.62189 11.7853 7.6978C11.6311 7.85111 11.4225 7.93716 11.205 7.93716C10.9876 7.93716 10.779 7.85111 10.6247 7.6978C10.5441 7.62281 10.4795 7.53236 10.4346 7.43184C10.3897 7.33132 10.3655 7.22279 10.3634 7.11271C10.3614 7.00264 10.3815 6.89328 10.4226 6.79115C10.4637 6.68902 10.525 6.59622 10.6027 6.51828C10.6805 6.44033 10.7731 6.37884 10.8751 6.33746C10.9772 6.29609 11.0865 6.27568 11.1966 6.27745C11.3066 6.27922 11.4152 6.30314 11.5159 6.34778C11.6165 6.39242 11.7071 6.45687 11.7823 6.53728L11.7853 6.54024Z" fill="white"/>
<path d="M20.3002 7.13234C20.3036 7.12277 20.3036 7.11232 20.3002 7.10274C20.2911 7.09623 20.2803 7.09273 20.2691 7.09273C20.258 7.09273 20.2471 7.09623 20.238 7.10274C20.2352 7.11241 20.2352 7.12267 20.238 7.13234C20.2376 7.13829 20.2384 7.14426 20.2405 7.14985C20.2426 7.15544 20.2458 7.16051 20.2501 7.16473C20.2543 7.16894 20.2593 7.1722 20.2649 7.17427C20.2705 7.17635 20.2765 7.17719 20.2824 7.17675C20.2921 7.17955 20.3024 7.17955 20.312 7.17675C20.3162 7.16629 20.3162 7.15465 20.312 7.14419L20.3002 7.13234ZM20.8361 6.54024C20.9808 6.69586 21.0595 6.90162 21.0556 7.11414C21.0516 7.32666 20.9653 7.52934 20.8148 7.67945C20.6643 7.82956 20.4614 7.91537 20.2489 7.91879C20.0363 7.92222 19.8308 7.84299 19.6755 7.6978C19.5949 7.62281 19.5303 7.53236 19.4854 7.43184C19.4405 7.33132 19.4163 7.22279 19.4142 7.11271C19.4122 7.00264 19.4323 6.89328 19.4734 6.79115C19.5145 6.68902 19.5758 6.59622 19.6535 6.51828C19.7313 6.44033 19.8239 6.37884 19.9259 6.33746C20.0279 6.29609 20.1373 6.27568 20.2473 6.27745C20.3574 6.27922 20.466 6.30314 20.5666 6.34778C20.6673 6.39242 20.7579 6.45687 20.8331 6.53728L20.8361 6.54024Z" fill="white"/>
</svg>
