<svg width="37" height="37" viewBox="0 0 37 37" fill="none" xmlns="http://www.w3.org/2000/svg">
<circle cx="18.2282" cy="18.2282" r="18.2282" fill="black"/>
<path d="M17.8607 9C14.1626 9 13.0811 9.00388 12.8709 9.0216C12.112 9.08571 11.6397 9.20714 11.1253 9.46744C10.7288 9.66752 10.4161 9.89944 10.1075 10.2245C9.54546 10.8174 9.20484 11.5469 9.08154 12.4139C9.02159 12.8348 9.00415 12.9207 9.00061 15.0707C8.99924 15.7874 9.00061 16.7306 9.00061 17.9957C9.00061 21.7507 9.00469 22.8487 9.02241 23.062C9.08372 23.8124 9.19953 24.2846 9.44477 24.801C9.91347 25.7897 10.8086 26.5318 11.8632 26.8087C12.2283 26.9043 12.6316 26.9569 13.1493 26.9818C13.3687 26.9915 15.6045 26.9984 17.8417 26.9984C20.0789 26.9984 22.3161 26.9956 22.53 26.9846C23.1295 26.9559 23.4776 26.9084 23.8625 26.8073C24.9239 26.529 25.8027 25.798 26.2809 24.7955C26.5214 24.2915 26.6433 23.8014 26.6985 23.0901C26.7105 22.935 26.7155 20.4625 26.7155 17.9933C26.7155 15.5237 26.7101 13.0558 26.6981 12.9007C26.6422 12.178 26.5203 11.692 26.272 11.1783C26.0684 10.7578 25.8422 10.4437 25.5138 10.1226C24.9278 9.55384 24.2112 9.20769 23.3572 9.08252C22.9434 9.02174 22.8609 9.00374 20.7437 9H17.8607Z" fill="url(#paint0_radial_671_3210)"/>
<path d="M18.0012 10.7139C16.0225 10.7139 15.7742 10.7225 14.9971 10.7579C14.2214 10.7934 13.692 10.9162 13.2287 11.0964C12.7496 11.2825 12.3431 11.5314 11.9381 11.9365C11.5328 12.3415 11.2839 12.7479 11.0972 13.227C10.9166 13.6904 10.7936 14.22 10.7587 14.9953C10.724 15.7724 10.7148 16.0209 10.7148 17.9996C10.7148 19.9783 10.7236 20.2258 10.7589 21.003C10.7945 21.7786 10.9173 22.308 11.0973 22.7713C11.2836 23.2505 11.5325 23.6569 11.9376 24.0619C12.3425 24.4672 12.7489 24.7167 13.2278 24.9028C13.6914 25.083 14.221 25.2058 14.9965 25.2413C15.7736 25.2766 16.0218 25.2853 18.0003 25.2853C19.9792 25.2853 20.2267 25.2766 21.0039 25.2413C21.7795 25.2058 22.3096 25.083 22.7731 24.9028C23.2522 24.7167 23.6581 24.4672 24.0629 24.0619C24.4681 23.6569 24.7171 23.2505 24.9038 22.7714C25.0829 22.308 25.2058 21.7784 25.2423 21.0031C25.2772 20.226 25.2863 19.9783 25.2863 17.9996C25.2863 16.0209 25.2772 15.7726 25.2423 14.9954C25.2058 14.2198 25.0829 13.6904 24.9038 13.2271C24.7171 12.7479 24.4681 12.3415 24.0629 11.9365C23.6576 11.5312 23.2523 11.2823 22.7727 11.0964C22.3082 10.9162 21.7785 10.7934 21.0028 10.7579C20.2257 10.7225 19.9783 10.7139 17.999 10.7139H18.0012ZM17.3476 12.0268C17.5416 12.0265 17.7581 12.0268 18.0012 12.0268C19.9465 12.0268 20.1771 12.0338 20.9453 12.0687C21.6557 12.1012 22.0412 12.2199 22.298 12.3196C22.638 12.4517 22.8804 12.6095 23.1353 12.8645C23.3903 13.1195 23.5482 13.3624 23.6805 13.7024C23.7802 13.9589 23.8991 14.3444 23.9314 15.0548C23.9663 15.8228 23.9739 16.0535 23.9739 17.9979C23.9739 19.9423 23.9663 20.173 23.9314 20.941C23.8989 21.6514 23.7802 22.0369 23.6805 22.2934C23.5485 22.6334 23.3903 22.8755 23.1353 23.1304C22.8803 23.3854 22.6382 23.5433 22.298 23.6753C22.0415 23.7755 21.6557 23.8939 20.9453 23.9264C20.1773 23.9613 19.9465 23.9689 18.0012 23.9689C16.0558 23.9689 15.8252 23.9613 15.0572 23.9264C14.3468 23.8936 13.9613 23.7749 13.7043 23.6752C13.3643 23.5431 13.1214 23.3852 12.8664 23.1302C12.6114 22.8752 12.4536 22.633 12.3212 22.2928C12.2215 22.0363 12.1026 21.6508 12.0703 20.9404C12.0354 20.1724 12.0284 19.9417 12.0284 17.9961C12.0284 16.0505 12.0354 15.821 12.0703 15.053C12.1028 14.3426 12.2215 13.9571 12.3212 13.7003C12.4533 13.3603 12.6114 13.1174 12.8664 12.8624C13.1214 12.6074 13.3643 12.4495 13.7043 12.3172C13.9611 12.217 14.3468 12.0986 15.0572 12.066C15.7293 12.0356 15.9898 12.0265 17.3476 12.025V12.0268ZM21.8903 13.2365C21.4077 13.2365 21.016 13.6277 21.016 14.1105C21.016 14.5932 21.4077 14.9848 21.8903 14.9848C22.373 14.9848 22.7646 14.5932 22.7646 14.1105C22.7646 13.6278 22.373 13.2362 21.8903 13.2362V13.2365ZM18.0012 14.2581C15.935 14.2581 14.2597 15.9333 14.2597 17.9996C14.2597 20.0658 15.935 21.7403 18.0012 21.7403C20.0675 21.7403 21.7422 20.0658 21.7422 17.9996C21.7422 15.9333 20.0675 14.2581 18.0012 14.2581ZM18.0012 15.571C19.3424 15.571 20.4298 16.6583 20.4298 17.9996C20.4298 19.3408 19.3424 20.4282 18.0012 20.4282C16.6599 20.4282 15.5726 19.3408 15.5726 17.9996C15.5726 16.6583 16.6599 15.571 18.0012 15.571Z" fill="black"/>
<defs>
<radialGradient id="paint0_radial_671_3210" cx="0" cy="0" r="1" gradientUnits="userSpaceOnUse" gradientTransform="translate(13.7057 28.3847) rotate(-90) scale(17.8378 16.3298)">
<stop offset="1" stop-color="white"/>
</radialGradient>
</defs>
</svg>
